<svg xmlns="http://www.w3.org/2000/svg" width="457" height="283" viewBox="0 0 457 283" version="1.1"><path d="M 327 27.383 L 327 51.912 339.074 57.956 C 345.715 61.280, 351.790 64, 352.574 64 C 353.768 64, 354 60.194, 354 40.615 L 354 17.230 341.750 10.365 C 335.012 6.589, 328.938 3.355, 328.250 3.177 C 327.275 2.925, 327 8.253, 327 27.383 M 415.718 220.437 C 402.603 225.116, 395.103 237.956, 396.293 253.690 C 397.245 266.280, 402.903 275.306, 412.945 280.255 C 416.874 282.192, 419.097 282.500, 429.123 282.500 C 440.703 282.500, 440.774 282.485, 448.623 278.500 L 456.500 274.500 456.500 261.500 L 456.500 248.500 442.250 248.223 L 428 247.945 428 253.973 L 428 260 435.060 260 L 442.121 260 441.810 263.701 C 441.423 268.322, 437.513 270.905, 429.791 271.639 C 418.201 272.742, 410.956 264.966, 410.827 251.286 C 410.744 242.378, 412.235 237.879, 416.519 234.118 C 424.074 227.484, 437.970 229.531, 441.090 237.736 C 441.852 239.742, 442.500 240.091, 444.516 239.585 C 445.883 239.242, 449.037 238.683, 451.524 238.342 C 455.553 237.789, 455.976 237.491, 455.397 235.611 C 453.186 228.430, 446.442 221.852, 439.499 220.104 C 433.537 218.603, 420.341 218.788, 415.718 220.437 M 2 251 L 2 282 25 282 L 48 282 48 276.500 L 48 271 32 271 L 16 271 16 245.500 L 16 220 9 220 L 2 220 2 251 M 56 251 L 56 282 81 282 L 106 282 106 276.500 L 106 271 88 271 L 70 271 70 263 L 70 255 86 255 L 102 255 102 249.500 L 102 244 86 244 L 70 244 70 237.524 L 70 231.047 87.250 230.774 L 104.500 230.500 104.802 225.250 L 105.105 220 80.552 220 L 56 220 56 251 M 126.525 237.767 C 122.689 247.520, 118.371 258.650, 116.930 262.500 C 115.489 266.350, 113.398 271.300, 112.284 273.500 C 111.169 275.700, 109.937 278.532, 109.547 279.794 C 108.845 282.065, 108.913 282.084, 116.588 281.794 L 124.338 281.500 126.818 274.720 L 129.298 267.941 141.369 268.220 L 153.440 268.500 156.148 275 L 158.855 281.500 166.427 281.792 C 170.592 281.953, 174 281.839, 174 281.539 C 174 280.840, 154.665 233.357, 151.283 225.750 L 148.727 220 141.113 220.017 L 133.500 220.034 126.525 237.767 M 180 251 L 180 282 186.970 282 L 193.940 282 194.220 269.250 L 194.500 256.500 198.500 256.853 C 203.994 257.338, 204.935 257.990, 209.506 264.479 C 211.703 267.597, 215.412 272.815, 217.748 276.074 L 221.996 282 230.520 282 L 239.045 282 232.137 271.704 C 228.338 266.042, 223.617 259.993, 221.647 258.263 L 218.064 255.117 223.447 252.653 C 226.408 251.297, 229.589 249.030, 230.517 247.614 C 234.393 241.699, 234.278 232.604, 230.258 227.077 C 229.227 225.660, 226.401 223.488, 223.980 222.250 C 219.852 220.141, 218.338 220, 199.788 220 L 180 220 180 251 M 244 251 L 244 282 250.500 282 L 257 282 257.016 262.250 L 257.033 242.500 259.266 246.201 C 263.889 253.861, 274.521 270.711, 278.227 276.250 L 282.075 282 289.537 282 L 297 282 297 251 L 297 220 290.022 220 L 283.043 220 282.772 239.109 L 282.500 258.218 270.541 239.109 L 258.581 220 251.291 220 L 244 220 244 251 M 308 251 L 308 282 315 282 L 322 282 322 251 L 322 220 315 220 L 308 220 308 251 M 334 251 L 334 282 340.500 282 L 347 282 347.021 263.250 L 347.043 244.500 351.558 251.500 C 354.041 255.350, 359.516 263.788, 363.724 270.250 L 371.375 282 378.687 282 L 386 282 386 251 L 386 220 379.022 220 L 372.043 220 371.772 238.901 L 371.500 257.802 365.135 247.651 C 361.635 242.068, 356.274 233.563, 353.224 228.750 L 347.676 220 340.838 220 L 334 220 334 251 M 194 238.500 L 194 246 202.351 246 C 206.944 246, 212.086 245.517, 213.778 244.927 C 219.250 243.020, 220.110 234.735, 215.114 232.061 C 214.023 231.477, 208.827 231, 203.566 231 L 194 231 194 238.500 M 137.213 246.750 C 135.435 251.563, 133.985 255.838, 133.991 256.250 C 133.996 256.663, 137.423 257, 141.607 257 C 148.433 257, 149.147 256.820, 148.562 255.250 C 146.214 248.943, 141.412 238.046, 140.972 238.025 C 140.682 238.011, 138.990 241.938, 137.213 246.750" stroke="none" fill="#0c5404" fill-rule="evenodd"/><path d="M 0.667 0.667 C 0.300 1.033, -0 42.433, -0 92.667 L 0 184 19 184 L 38 184 38 144 L 38 104 74 104 L 110 104 110 144 L 110 184 129.005 184 L 148.010 184 147.755 92.250 L 147.500 0.500 128.750 0.228 L 110 -0.044 110 35.978 L 110 72 74 72 L 38 72 38 36 L 38 0 19.667 0 C 9.583 0, 1.033 0.300, 0.667 0.667 M 301.345 5.055 C 300.155 6.245, 295.222 9.073, 290 11.559 C 288.075 12.475, 286.275 13.574, 286 14 C 285.725 14.426, 283.925 15.504, 282 16.395 C 280.075 17.286, 276.700 19.110, 274.500 20.448 C 272.300 21.787, 268.813 23.633, 266.750 24.550 C 264.688 25.467, 263 26.528, 263 26.908 C 263 27.287, 261.425 28.168, 259.500 28.864 C 257.575 29.560, 256 30.550, 256 31.065 C 256 31.579, 255.438 32.012, 254.750 32.027 C 254.063 32.042, 236.625 41.611, 216 53.291 L 178.500 74.528 178.500 95.001 L 178.500 115.473 181.500 116.891 C 183.150 117.671, 184.725 118.639, 185 119.042 C 185.275 119.445, 187.075 120.517, 189 121.423 C 190.925 122.329, 194.300 124.183, 196.500 125.542 C 198.700 126.901, 202.188 128.753, 204.250 129.658 C 206.313 130.563, 208 131.636, 208 132.043 C 208 132.450, 209.688 133.533, 211.750 134.450 C 213.813 135.367, 217.300 137.213, 219.500 138.552 C 221.700 139.890, 225.028 141.697, 226.896 142.567 C 228.763 143.437, 230.932 144.790, 231.716 145.573 C 232.499 146.356, 234.233 147.271, 235.570 147.607 C 236.906 147.942, 238 148.569, 238 149 C 238 149.430, 239.688 150.533, 241.750 151.450 C 243.813 152.367, 247.300 154.207, 249.500 155.538 C 251.700 156.869, 255.075 158.755, 257 159.729 C 258.925 160.703, 261.094 162.062, 261.820 162.748 C 262.546 163.435, 264.233 164.271, 265.570 164.607 C 266.906 164.942, 268 165.569, 268 166 C 268 166.430, 269.688 167.522, 271.750 168.425 C 273.813 169.328, 278.425 171.843, 282 174.014 C 285.575 176.185, 289.025 177.970, 289.667 177.980 C 290.308 177.991, 290.983 178.356, 291.167 178.791 C 291.589 179.793, 302.625 186, 303.985 186 C 304.643 186, 305 177.742, 305 162.524 L 305 139.048 295.250 134.175 C 289.887 131.494, 279.200 126.018, 271.500 122.005 C 263.800 117.991, 251.200 111.511, 243.500 107.604 C 235.800 103.697, 229.350 100.162, 229.167 99.750 C 228.983 99.337, 228.308 98.998, 227.667 98.995 C 227.025 98.992, 224.774 97.945, 222.664 96.668 L 218.829 94.346 261.896 72.923 L 304.964 51.500 304.982 27.750 C 304.996 8.920, 304.731 4, 303.700 4 C 302.985 4, 301.925 4.475, 301.345 5.055 M 378 54.281 L 378 76.660 395.500 85.457 C 405.125 90.296, 413 94.612, 413 95.049 C 413 95.486, 407.262 98.671, 400.250 102.126 C 393.238 105.581, 387.275 108.654, 387 108.954 C 386.725 109.254, 378.625 113.478, 369 118.340 C 359.375 123.201, 346.212 129.859, 339.750 133.134 L 328 139.088 328 162.544 C 328 177.748, 328.357 186, 329.015 186 C 330.149 186, 341.218 179.979, 342 178.936 C 342.275 178.569, 343.510 177.954, 344.744 177.569 C 345.978 177.184, 347.553 176.336, 348.244 175.684 C 348.935 175.033, 351.262 173.600, 353.417 172.500 C 362.456 167.884, 364.526 166.726, 365 166.017 C 365.275 165.606, 366.510 164.954, 367.744 164.569 C 368.978 164.184, 370.553 163.336, 371.244 162.684 C 371.935 162.033, 374.075 160.703, 376 159.729 C 377.925 158.755, 381.300 156.869, 383.500 155.538 C 385.700 154.207, 389.188 152.367, 391.250 151.450 C 393.313 150.533, 395 149.417, 395 148.969 C 395 148.521, 396.575 147.635, 398.500 147 C 400.425 146.365, 402 145.498, 402 145.074 C 402 144.650, 403.688 143.563, 405.750 142.658 C 407.813 141.753, 411.300 139.901, 413.500 138.542 C 415.700 137.183, 419.075 135.329, 421 134.423 C 422.925 133.517, 424.725 132.426, 425 132 C 425.275 131.574, 427.075 130.483, 429 129.577 C 430.925 128.671, 434.132 126.933, 436.126 125.715 C 438.120 124.497, 442.962 121.700, 446.885 119.500 L 454.018 115.500 453.759 95.018 L 453.500 74.537 422.041 56.738 C 404.738 46.948, 387.751 37.355, 384.291 35.420 L 378 31.902 378 54.281" stroke="none" fill="#fcfcfc" fill-rule="evenodd"/></svg>